<svg t="1702018435942" class="icon" viewBox="0 0 1024 1024" version="1.1" xmlns="http://www.w3.org/2000/svg" p-id="1345" width="200" height="200"><path d="M896 853.333333c0 23.509333-19.157333 42.666667-42.666667 42.666667H170.666667c-23.509333 0-42.666667-19.157333-42.666667-42.666667v-298.666666h215.808c11.946667 72.149333 82.432 128 168.192 128 85.76 0 156.245333-55.850667 168.192-128H896v298.666666z m-304.085333-298.666666c-12.074667 24.533333-43.605333 42.666667-79.914667 42.666666s-67.84-18.133333-79.914667-42.666666h159.829334zM128 298.666667c0-23.509333 19.157333-42.666667 42.666667-42.666667h682.666666c23.509333 0 42.666667 19.157333 42.666667 42.666667v170.666666H128V298.666667z m298.666667-170.666667h170.666666c23.509333 0 42.666667 19.157333 42.666667 42.666667H384c0-23.509333 19.157333-42.666667 42.666667-42.666667z m426.666666 42.666667h-128c0-70.570667-57.429333-128-128-128h-170.666666C356.096 42.666667 298.666667 100.096 298.666667 170.666667H170.666667C100.096 170.666667 42.666667 228.096 42.666667 298.666667v554.666666c0 70.570667 57.429333 128 128 128h682.666666c70.570667 0 128-57.429333 128-128V298.666667c0-70.570667-57.429333-128-128-128z" fill="#909399" p-id="1346"></path></svg>