<svg t="1702018126748" class="icon" viewBox="0 0 1024 1024" version="1.1" xmlns="http://www.w3.org/2000/svg" p-id="1461" width="200" height="200"><path d="M801.834667 33.834667a102.954667 102.954667 0 0 1 145.664 0l42.666666 42.666666c40.277333 40.234667 40.277333 105.386667 0 145.664L828.330667 384l71.338666 71.381333a170.666667 170.666667 0 0 1 6.442667 234.538667l-6.4 6.784-306.346667 306.304a42.453333 42.453333 0 0 1-22.613333 11.818667l-5.034667 0.597333h-5.034666a42.496 42.496 0 0 1-27.648-12.416l-512-512a42.666667 42.666667 0 0 1 0-60.330667l306.346666-306.346666a170.666667 170.666667 0 0 1 241.28 0L640 195.669333zM256 316.330667L111.530667 460.8l71.893333 71.893333 67.968-67.968a42.666667 42.666667 0 0 1 63.317333 57.088l-2.944 3.242667L243.754667 593.066667 311.466667 660.693333l67.968-67.968a42.666667 42.666667 0 0 1 63.317333 57.088l-2.944 3.242667L371.754667 721.066667l67.669333 67.669333 67.968-67.968a42.666667 42.666667 0 0 1 63.317333 57.088l-2.944 3.242667-68.010666 67.968 63.445333 63.445333L707.669333 768 256 316.330667z m252.330667-131.669334a85.333333 85.333333 0 0 0-120.661334 0L316.330667 255.957333 768 707.626667l71.338667-71.296a85.333333 85.333333 0 0 0 8.448-110.848l-4.608-5.717334-3.84-4.096z m378.837333-90.453333a17.621333 17.621333 0 0 0-25.002667 0l-161.834666 161.749333L768 323.626667l161.834667-161.792a17.621333 17.621333 0 0 0 3.754666-19.456l-1.706666-3.072-2.048-2.474667z" fill="#909399" p-id="1462"></path></svg>