<svg t="1702005630176" class="icon" viewBox="0 0 1024 1024" version="1.1" xmlns="http://www.w3.org/2000/svg" p-id="1013" width="200" height="200"><path d="M533.333333 170.666667c90.112 0 173.184 29.909333 240.554667 79.829333l58.282667-58.282667a42.624 42.624 0 1 1 60.330666 60.330667l-55.68 55.722667A403.157333 403.157333 0 0 1 938.666667 576c0 223.488-181.845333 405.333333-405.333334 405.333333S128 799.488 128 576 309.845333 170.666667 533.333333 170.666667z m0 85.333333C356.864 256 213.333333 399.530667 213.333333 576S356.864 896 533.333333 896s320-143.530667 320-320S709.802667 256 533.333333 256zM512 384a42.666667 42.666667 0 0 1 42.666667 42.666667v147.84l109.013333 72.661333a42.709333 42.709333 0 0 1-47.36 70.997333l-128-85.333333A42.666667 42.666667 0 0 1 469.333333 597.333333v-170.666666a42.666667 42.666667 0 0 1 42.666667-42.666667z m170.666667-341.333333a42.666667 42.666667 0 1 1 0 85.333333H384a42.666667 42.666667 0 1 1 0-85.333333z" fill="#909399" p-id="1014"></path></svg>