<svg t="1702017966102" class="icon" viewBox="0 0 1024 1024" version="1.1" xmlns="http://www.w3.org/2000/svg" p-id="1311" width="200" height="200"><path d="M0 524.288C0 218.794667 283.392 54.997333 595.114667 89.984 845.738667 118.186667 1024 290.005333 1024 501.632c0 112.170667-55.893333 161.450667-166.272 191.701333-7.509333 2.090667-14.592 3.882667-28.373333 7.466667-47.957333 12.458667-66.986667 20.778667-75.093334 32.426667-9.984 14.506667-10.794667 24.789333-5.888 56.746666 1.706667 11.392 2.389333 16.341333 3.072 23.210667 5.546667 59.221333-18.517333 103.850667-88.618666 144.298667-80.725333 46.634667-245.12 22.528-388.693334-51.882667C107.690667 819.328 0 684.458667 0 524.288z m586.410667-354.986667c-270.762667-30.506667-507.648 106.410667-507.648 354.986667 0 125.44 88.576 236.373333 231.253333 310.357333 122.325333 63.402667 261.461333 83.84 313.728 53.632 43.818667-25.301333 51.84-40.234667 49.28-67.541333a304.768 304.768 0 0 0-2.474667-18.602667c-7.765333-50.602667-5.674667-78.677333 19.242667-114.688 23.125333-33.493333 52.736-46.336 119.893333-63.829333 13.909333-3.626667 20.48-5.333333 27.477334-7.253333 79.957333-21.888 108.074667-46.634667 108.074666-114.773334 0-167.936-145.749333-308.394667-358.826666-332.373333v0.042667z m-333.653334 321.749334c36.224 0 65.621333 29.738667 65.621334 66.432s-29.44 66.432-65.664 66.432c-36.266667 0-65.621333-29.738667-65.621334-66.432s29.354667-66.432 65.621334-66.432z m377.386667-202.069334c36.266667 0 65.664 29.738667 65.664 66.432s-29.44 66.432-65.664 66.432c-36.266667 0-65.621333-29.781333-65.621333-66.432 0-36.693333 29.397333-66.432 65.621333-66.432z m-262.570667-3.84c23.466667 0 45.141333 12.672 56.874667 33.194667a67.114667 67.114667 0 0 1 0 66.432 65.493333 65.493333 0 0 1-56.874667 33.237333c-36.266667 0-65.621333-29.738667-65.621333-66.432s29.397333-66.432 65.621333-66.432z" fill="#909399" p-id="1312"></path></svg>