<svg t="1702018391106" class="icon" viewBox="0 0 1024 1024" version="1.1" xmlns="http://www.w3.org/2000/svg" p-id="1031" width="200" height="200"><path d="M556.416 893.098667l402.986667 0.042666a42.666667 42.666667 0 0 1 4.096 85.12l-4.096 0.213334H364.458667a42.666667 42.666667 0 0 1-42.112-35.712L12.501333 632.789333a42.666667 42.666667 0 0 1 0-60.330666l185.941334-186.026667 0.341333-0.298667 293.504-293.461333a170.666667 170.666667 0 0 1 241.365333 0l190.933334 190.933333a170.666667 170.666667 0 0 1 0 241.322667l-368.170667 368.170667z m-327.466667-416.426667l-125.952 125.952 290.56 290.517333h42.112l104.874667-104.874666-311.594667-311.594667z m444.373334-323.669333a85.333333 85.333333 0 0 0-120.704 0L294.4 411.136l311.637333 311.637333 258.218667-258.176a85.333333 85.333333 0 0 0 8.448-110.805333l-4.608-5.76-3.84-4.096z" fill="#909399" p-id="1032"></path></svg>