<svg t="1702005324580" class="icon" viewBox="0 0 1024 1024" version="1.1" xmlns="http://www.w3.org/2000/svg" p-id="865" width="200" height="200"><path d="M533.333333 42.666667c27.690667 0 53.717333 13.482667 69.717334 36.096l93.568 132.48 117.077333-66.304a42.496 42.496 0 0 1 37.034667-2.432 42.496 42.496 0 0 1 24.917333 27.477333 497.365333 497.365333 0 0 1 15.018667 67.84A493.866667 493.866667 0 0 1 896 310.101333c0 56.618667-9.258667 111.701333-27.562667 163.626667a435.626667 435.626667 0 0 1-76.074666 135.210667 365.013333 365.013333 0 0 1-115.2 93.013333 317.610667 317.610667 0 0 1-101.76 31.744c0 1.066667 0.597333 1.962667 0.597333 3.072v213.333333a42.666667 42.666667 0 1 1-85.333333 0v-213.333333c0-1.109333 0.554667-2.005333 0.64-3.072a318.592 318.592 0 0 1-101.802667-31.701333 365.44 365.44 0 0 1-115.2-93.056 436.736 436.736 0 0 1-76.074667-135.168 491.349333 491.349333 0 0 1-26.197333-200.234667 489.216 489.216 0 0 1 18.986667-103.509333 42.624 42.624 0 0 1 61.952-25.045334L370.048 211.2l93.568-132.48C479.573333 56.149333 505.6 42.666667 533.333333 42.666667zM213.333333 736.725333c199.125333 0 251.648 150.741333 253.824 157.184A42.624 42.624 0 0 1 426.666667 950.058667a42.666667 42.666667 0 0 1-40.362667-28.842667c-1.706667-4.736-37.546667-99.157333-172.970667-99.157333a42.666667 42.666667 0 0 1 0-85.333334z m640 0a42.666667 42.666667 0 0 1 0 85.333334c-138.325333 0-172.501333 97.834667-172.842666 98.816a42.709333 42.709333 0 0 1-80.981334-26.965334c2.176-6.442667 54.698667-157.184 253.824-157.184zM533.333333 128L417.493333 292.010667a42.794667 42.794667 0 0 1-55.893333 12.501333L260.864 247.466667l-0.469333 3.114666A394.581333 394.581333 0 0 0 256 310.058667c0 46.933333 7.637333 92.501333 22.741333 135.253333 14.421333 40.96 34.986667 77.610667 61.098667 108.928a280.277333 280.277333 0 0 0 88.234667 71.594667 230.613333 230.613333 0 0 0 210.517333 0 279.808 279.808 0 0 0 88.234667-71.594667 349.866667 349.866667 0 0 0 61.098666-108.885333 413.482667 413.482667 0 0 0 17.877334-197.888l-100.736 57.045333a42.666667 42.666667 0 0 1-55.893334-12.501333L533.333333 128z" fill="#909399" p-id="866"></path></svg>