<svg t="1702018408798" class="icon" viewBox="0 0 1024 1024" version="1.1" xmlns="http://www.w3.org/2000/svg" p-id="1185" width="200" height="200"><path d="M512 0c160.682667 0 292.949333 118.101333 298.496 267.52L810.666667 277.333333V384h85.333333a85.333333 85.333333 0 0 1 85.12 78.933333L981.333333 469.333333v426.666667a85.333333 85.333333 0 0 1-78.933333 85.12L896 981.333333H128a85.333333 85.333333 0 0 1-85.12-78.933333L42.666667 896V469.333333a85.333333 85.333333 0 0 1 78.933333-85.12L128 384h85.333333V277.333333C213.333333 126.549333 342.186667 5.248 501.546667 0.170667L512 0z m384 469.333333H128v426.666667h768V469.333333z m-384 85.333334a85.333333 85.333333 0 0 1 42.709333 159.232L554.666667 768a42.666667 42.666667 0 0 1-85.034667 4.992L469.333333 768v-54.101333A85.333333 85.333333 0 0 1 512 554.666667z m0-469.333334C396.672 85.333333 303.957333 167.381333 298.88 268.629333L298.666667 277.333333V384h426.666666V277.333333c0-99.328-84.48-182.314667-193.792-191.189333l-9.728-0.597333L512 85.333333z" fill="#909399" p-id="1186"></path></svg>