<svg t="1702005761134" class="icon" viewBox="0 0 1024 1024" version="1.1" xmlns="http://www.w3.org/2000/svg" p-id="1161" width="200" height="200"><path d="M810.666667 85.333333a128 128 0 0 1 128 128v597.333334a128 128 0 0 1-128 128H213.333333a128 128 0 0 1-128-128V213.333333a128 128 0 0 1 128-128zM256 170.666667H213.333333a42.666667 42.666667 0 0 0-42.666666 42.666666v597.333334a42.666667 42.666667 0 0 0 42.666666 42.666666h597.333334a42.666667 42.666667 0 0 0 42.666666-42.666666V213.333333a42.666667 42.666667 0 0 0-42.666666-42.666666h-42.666667v256a128 128 0 0 1-120.490667 127.786666L640 554.666667H384a128 128 0 0 1-128-128V170.666667z m426.666667 0H341.333333v256a42.666667 42.666667 0 0 0 37.674667 42.368L384 469.333333h256a42.666667 42.666667 0 0 0 42.666667-42.666666V170.666667z m-85.333334 42.666666a42.666667 42.666667 0 0 1 42.666667 42.666667v85.333333a42.666667 42.666667 0 0 1-85.333333 0V256a42.666667 42.666667 0 0 1 42.666666-42.666667z" fill="#909399" p-id="1162"></path></svg>